<svg width="170" height="30" viewBox="0 0 170 30" fill="none" xmlns="http://www.w3.org/2000/svg">
<g clip-path="url(#clip0_80_32)">
<path d="M15.6613 0.00281791C15.6613 0.859005 15.6613 1.71519 15.6613 2.57138C15.6613 3.68339 15.6613 4.7954 15.6613 5.90593C14.602 5.90149 13.667 5.90593 12.8809 5.91776C12.0673 5.92811 11.3948 5.94437 10.5289 6.05676C9.95016 6.13217 9.55099 6.21646 9.15183 6.33772C8.65287 6.48855 8.29209 6.59649 7.91595 6.83753C7.14218 7.32995 6.35153 8.34436 6.5419 9.33955C6.58949 9.58502 6.68314 9.76099 6.77219 9.92808C7.17442 10.6852 7.81155 11.0889 8.08022 11.2161C9.34373 11.8149 10.7239 12.019 12.1072 12.0442C15.1562 12.0989 18.2083 12.0589 21.2573 12.09C23.4312 12.1122 25.5913 12.2926 27.627 13.1059C31.1458 14.5107 33.0465 17.0438 33.1278 20.7362C33.2077 24.3768 31.5496 27.0356 28.1168 28.6252C26.3912 29.4237 24.5366 29.755 22.6574 29.9073C21.1007 30.0344 19.5301 30.0123 17.9657 30.0758C17.5834 30.0921 17.4499 29.9989 17.456 29.6041C17.4806 27.9805 17.4806 26.3553 17.456 24.7317C17.4499 24.3265 17.565 24.2201 17.9872 24.2171C19.9523 24.2082 21.9328 24.2378 23.8304 23.6537C24.5197 23.4408 25.229 23.1258 25.7786 22.6836C27.0774 21.6337 26.864 19.8149 25.4209 18.9558C24.0852 18.1617 22.573 18.0301 21.0746 18.0035C17.9242 17.9473 14.7708 17.999 11.6205 17.9768C9.27772 17.9606 6.98405 17.6737 4.84084 16.6682C1.23301 14.9765 -0.363654 11.7425 0.0692863 8.14473C0.537538 4.25122 2.90796 1.82314 6.85049 0.786547C9.73062 0.0294352 12.6629 -0.0149269 15.6613 0.00281791Z" fill="#656C72"/>
<path d="M17.4836 5.86039V0.0341797H32.4262V12.3121C32.285 12.2766 32.1545 12.2574 32.0378 12.2101C30.1172 11.4367 28.2043 10.6485 26.276 9.89438C25.9275 9.75834 25.8523 9.57497 25.8584 9.24965C25.8769 8.32249 25.8369 7.39236 25.8769 6.4652C25.8968 5.992 25.7679 5.84265 25.2566 5.84708C22.8877 5.8737 20.5188 5.85891 18.1499 5.85891C17.9335 5.85891 17.7185 5.85891 17.4836 5.85891V5.86039Z" fill="#0D6EFD"/>
<path d="M15.7457 24.2289V30.0418H0.0355225C0.106144 29.8644 0.159878 29.7062 0.232034 29.5553C0.998124 27.9228 1.75654 26.2888 2.54412 24.6666C2.63317 24.4833 2.88648 24.2467 3.06457 24.2467C7.27576 24.223 11.487 24.2289 15.7473 24.2289H15.7457Z" fill="#0D6EFD"/>
<path d="M14.5144 2.66011C14.3532 2.66011 14.1736 2.65857 13.9771 2.66011" stroke="white" stroke-width="0.460575" stroke-miterlimit="10"/>
<path d="M12.8963 2.68823C12.491 2.70598 12.0457 2.73259 11.5698 2.77252C9.07195 2.98398 7.68562 3.11707 6.2517 3.98952C5.09566 4.6934 4.47388 5.5348 4.30193 5.77583C3.97185 6.24163 3.09676 7.51926 3.2119 9.24494C3.32398 10.9189 4.305 12.0457 4.57981 12.3518C6.34228 14.32 9.14565 14.5551 12.4188 14.7872C14.083 14.9041 13.9326 14.7577 17.2687 14.7665C21.6994 14.7769 23.9516 14.7991 25.7494 15.5606C26.8241 16.0161 29.2712 17.0541 29.9698 19.3861C30.4826 21.097 29.7917 22.6304 29.6812 22.8656C29.566 23.1125 29.0333 24.1964 27.4305 25.2611C24.8328 26.9853 21.6073 27.2101 19.699 27.1761" stroke="white" stroke-width="0.460575" stroke-miterlimit="10" stroke-dasharray="1.08 1.08"/>
<path d="M19.1586 27.1584C18.9544 27.1495 18.7748 27.1376 18.6228 27.1257" stroke="white" stroke-width="0.460575" stroke-miterlimit="10"/>
<path d="M40.0473 26.9491V29.8162H35.7683V23.5444H46.9499C47.842 23.5444 48.2331 23.0068 48.2331 22.3957C48.2331 21.8214 47.8038 21.3205 46.9499 21.3205H35.7874L38.6353 17.824H46.3202C50.2844 17.824 52.555 19.7216 52.555 22.4095C52.555 25.0974 50.2844 26.9445 46.3059 26.9445H40.0568L40.0473 26.9491Z" fill="#656C72"/>
<path d="M67.2285 29.8162L64.8672 26.8434H59.2478V29.8162H54.9497V23.5444H66.2076C67.2333 23.5444 67.7914 23.2044 67.7914 22.4141C67.7914 21.6238 67.2333 21.3205 66.2076 21.3205H54.9688L57.7785 17.824H65.6686C68.4783 17.824 72.2564 18.6281 72.2564 22.1798C72.2564 23.9717 71.1592 25.5477 69.2225 25.998C69.5564 26.2139 70.396 26.9307 72.0894 28.8283L72.9815 29.8162H67.2332H67.2285Z" fill="#656C72"/>
<path d="M74.9087 29.8162V17.8286H79.2067V29.8162H74.9087Z" fill="#656C72"/>
<path d="M85.9616 23.3837V29.8163H82.0547V20.1399C82.0547 18.3479 83.1519 17.6128 84.3969 17.6128C84.9169 17.6128 85.4225 17.7368 86.1094 18.3112L93.16 24.2797V17.8287H97.0668V27.5236C97.0668 29.3155 95.9506 30.0507 94.7055 30.0507C94.1665 30.0507 93.6799 29.9082 92.993 29.3339L85.9616 23.3837Z" fill="#656C72"/>
<path d="M104.303 29.8162V21.3205H98.6458L101.436 17.824H115.499L112.709 21.3205H108.616V29.8162H104.299H104.303Z" fill="#656C72"/>
<path d="M117.159 29.8162V17.8286H131.876L129.085 21.3252H121.476V22.3268H131.112L128.713 25.2491H121.476V26.3793H131.895L129.142 29.8208H117.159V29.8162Z" fill="#656C72"/>
<path d="M145.924 29.8162L143.563 26.8434H137.944V29.8162H133.646V23.5444H144.903C145.929 23.5444 146.487 23.2044 146.487 22.4141C146.487 21.6238 145.929 21.3205 144.903 21.3205H133.665L136.474 17.824H144.364C147.174 17.824 150.952 18.6281 150.952 22.1798C150.952 23.9717 149.855 25.5477 147.918 25.998C148.252 26.2139 149.092 26.9307 150.785 28.8283L151.677 29.8162H145.929H145.924Z" fill="#656C72"/>
<path d="M152.808 29.8163L155.579 26.3749H164.977C165.535 26.3749 165.85 26.1773 165.85 25.7454C165.85 25.3135 165.535 25.116 164.939 25.116H157.907C154.687 25.116 153.218 23.664 153.218 21.6378C153.218 19.221 154.783 17.8196 158.67 17.8196H169.647L166.875 21.3161H158.26C157.683 21.3161 157.387 21.4586 157.387 21.8905C157.387 22.3224 157.683 22.4832 158.26 22.4832H165.33C168.345 22.4832 170 23.6135 170 25.796C170 28.2679 168.774 29.8118 164.92 29.8118H152.808V29.8163Z" fill="#656C72"/>
<path d="M40.2721 9.21558V13.5893H39.6678V9.76476H37.5783V13.5893H36.974V9.21558H40.2687H40.2721Z" fill="#0D6EFD"/>
<path d="M42.1704 13.0401H44.2769V13.5893H41.566V9.21558H44.2462V9.76476H42.1704V11.1065H44.0823V11.6491H42.1704V13.0368V13.0401Z" fill="#0D6EFD"/>
<path d="M46.9777 9.21558C47.3976 9.21558 47.7459 9.3504 48.0258 9.62006C48.3058 9.88972 48.4458 10.2219 48.4458 10.6231C48.4458 11.0243 48.3058 11.3531 48.0258 11.6228C47.7459 11.8924 47.3976 12.0306 46.9777 12.0306H45.9329V13.5926H45.3286V9.21886H46.9777V9.21558ZM46.9777 11.4847C47.2269 11.4847 47.4352 11.4024 47.5991 11.238C47.7629 11.0736 47.8449 10.8697 47.8449 10.6231C47.8449 10.3764 47.7629 10.166 47.5991 10.0048C47.4352 9.84368 47.2269 9.76146 46.9777 9.76146H45.9329V11.4847H46.9777Z" fill="#0D6EFD"/>
<path d="M50.0845 13.0401H52.1911V13.5893H49.4802V9.21558H52.1604V9.76476H50.0845V11.1065H51.9965V11.6491H50.0845V13.0368V13.0401Z" fill="#0D6EFD"/>
<path d="M55.841 11.3235C56.0493 11.4189 56.2132 11.557 56.3361 11.7346C56.459 11.9122 56.5204 12.1193 56.5204 12.3528C56.5204 12.7014 56.3941 12.9974 56.1381 13.2342C55.882 13.4709 55.5713 13.5893 55.2026 13.5893H53.2428V9.21558H55.0592C55.4142 9.21558 55.7147 9.33067 55.9605 9.55758C56.2063 9.78777 56.3292 10.0706 56.3292 10.406C56.3292 10.7941 56.1654 11.0966 55.8376 11.3169L55.841 11.3235ZM55.0626 9.76146H53.8505V11.0999H55.0626C55.2538 11.0999 55.4142 11.0341 55.544 10.9059C55.6737 10.7776 55.7386 10.6198 55.7386 10.4323C55.7386 10.2449 55.6737 10.0903 55.5406 9.96207C55.4074 9.83053 55.2504 9.76476 55.0626 9.76476V9.76146ZM55.2026 13.0467C55.404 13.0467 55.5781 12.9777 55.7147 12.8395C55.8513 12.7014 55.923 12.5337 55.923 12.3331C55.923 12.1325 55.8513 11.9714 55.7113 11.8332C55.5713 11.6951 55.4006 11.6261 55.2026 11.6261H53.8471V13.0434H55.2026V13.0467Z" fill="#0D6EFD"/>
<path d="M57.5583 9.21558H58.1627V13.5893H57.5583V9.21558Z" fill="#0D6EFD"/>
<path d="M61.6451 11.3302C61.8773 11.4255 62.0616 11.5669 62.1914 11.7478C62.3211 11.932 62.386 12.149 62.386 12.3989C62.386 12.7738 62.2392 13.0797 61.949 13.3164C61.6554 13.5532 61.2695 13.6716 60.7916 13.6716C60.3545 13.6716 60.0029 13.5762 59.7366 13.3888C59.4703 13.2013 59.2825 12.9613 59.1766 12.6653L59.6888 12.3825C59.8219 12.8758 60.1907 13.1191 60.7916 13.1191C61.1057 13.1191 61.3515 13.0501 61.5256 12.9152C61.6997 12.7804 61.7851 12.5995 61.7851 12.3759C61.7851 12.1523 61.7032 11.9681 61.5427 11.8333C61.3822 11.6952 61.1535 11.6261 60.8633 11.6261H60.3306V11.0934H60.713C60.9896 11.0934 61.2115 11.0276 61.3754 10.8961C61.5393 10.7645 61.6212 10.5935 61.6212 10.3798C61.6212 10.166 61.5461 10.0016 61.3925 9.87005C61.2388 9.73851 61.0271 9.67273 60.754 9.67273C60.2521 9.67273 59.9175 9.88648 59.7502 10.3173L59.2449 10.0345C59.5181 9.42938 60.0199 9.13013 60.7574 9.13013C61.1944 9.13013 61.5495 9.24522 61.8192 9.47871C62.089 9.7122 62.2255 10.0082 62.2255 10.3666C62.2255 10.7843 62.0343 11.1032 61.6554 11.3236L61.6451 11.3302Z" fill="#0D6EFD"/>
<path d="M66.2304 9.21558H66.8279V13.5893H66.2304V11.6195H64.0248V13.5893H63.4205V9.21558H64.0248V11.0703H66.2304V9.21558Z" fill="#0D6EFD"/>
<path d="M70.9488 13.5893V10.3271L68.6135 13.5893H68.1287V9.21558H68.733V12.4844L71.0683 9.21558H71.5531V13.5893H70.9488Z" fill="#0D6EFD"/>
<path d="M76.1487 13.5893H75.4078L73.4481 11.4912V13.5893H72.8438V9.21558H73.4481V11.1887L75.343 9.21558H76.0838L74.0797 11.34L76.1487 13.5893Z" fill="#0D6EFD"/>
<path d="M79.836 13.5893V10.3271L77.5007 13.5893H77.0159V9.21558H77.6202V12.4844L79.9555 9.21558H80.4403V13.5893H79.836Z" fill="#0D6EFD"/>
<path d="M85.7905 13.1027C86.1012 13.1027 86.388 13.0303 86.6475 12.8856C86.907 12.7409 87.0982 12.5502 87.2245 12.3134L87.7503 12.5995C87.5659 12.9251 87.2962 13.1849 86.9445 13.3789C86.5929 13.5729 86.2105 13.6683 85.7905 13.6683C85.1077 13.6683 84.5443 13.448 84.1039 13.0106C83.6635 12.5732 83.4415 12.0372 83.4415 11.3992C83.4415 10.7612 83.6635 10.2186 84.1039 9.78454C84.5443 9.35046 85.1077 9.13013 85.7905 9.13013C86.207 9.13013 86.5894 9.22549 86.9377 9.41623C87.2859 9.60696 87.5591 9.86676 87.7503 10.1923L87.2245 10.485C87.0947 10.2449 86.9001 10.0509 86.6441 9.90622C86.388 9.76152 86.1012 9.68918 85.7905 9.68918C85.3193 9.68918 84.9267 9.824 84.616 10.0904C84.3053 10.3567 84.1175 10.702 84.0595 11.1197H86.3948V11.6623H84.0595C84.121 12.0832 84.3053 12.4252 84.616 12.6916C84.9267 12.958 85.3193 13.0928 85.7905 13.0928V13.1027Z" fill="#0D6EFD"/>
<path d="M91.3488 11.3235C91.5571 11.4189 91.721 11.557 91.8439 11.7346C91.9668 11.9122 92.0283 12.1193 92.0283 12.3528C92.0283 12.7014 91.9019 12.9974 91.6459 13.2342C91.3898 13.4709 91.0791 13.5893 90.7104 13.5893H88.7506V9.21558H90.567C90.9221 9.21558 91.2225 9.33067 91.4683 9.55758C91.7142 9.78777 91.8371 10.0706 91.8371 10.406C91.8371 10.7941 91.6732 11.0966 91.3454 11.3169L91.3488 11.3235ZM90.5704 9.76146H89.3583V11.0999H90.5704C90.7616 11.0999 90.9221 11.0341 91.0518 10.9059C91.1815 10.7776 91.2464 10.6198 91.2464 10.4323C91.2464 10.2449 91.1815 10.0903 91.0484 9.96207C90.9152 9.83053 90.7582 9.76476 90.5704 9.76476V9.76146ZM90.7138 13.0467C90.9152 13.0467 91.0893 12.9777 91.2259 12.8395C91.3625 12.7014 91.4342 12.5337 91.4342 12.3331C91.4342 12.1325 91.3625 11.9714 91.2225 11.8332C91.0825 11.6951 90.9118 11.6261 90.7138 11.6261H89.3583V13.0434H90.7138V13.0467Z" fill="#0D6EFD"/>
<path d="M94.7152 9.21558C95.1352 9.21558 95.4834 9.3504 95.7634 9.62006C96.0434 9.88972 96.1833 10.2219 96.1833 10.6231C96.1833 11.0243 96.0434 11.3531 95.7634 11.6228C95.4834 11.8924 95.1352 12.0306 94.7152 12.0306H93.6705V13.5926H93.0662V9.21886H94.7152V9.21558ZM94.7152 11.4847C94.9645 11.4847 95.1727 11.4024 95.3366 11.238C95.5005 11.0736 95.5824 10.8697 95.5824 10.6231C95.5824 10.3764 95.5005 10.166 95.3366 10.0048C95.1727 9.84368 94.9645 9.76146 94.7152 9.76146H93.6705V11.4847H94.7152Z" fill="#0D6EFD"/>
<path d="M100.967 13.0105C100.509 13.4512 99.9526 13.6715 99.2971 13.6715C98.6416 13.6715 98.0851 13.4512 97.631 13.0105C97.1769 12.5698 96.9481 12.0338 96.9481 11.4057C96.9481 10.7776 97.1769 10.235 97.631 9.7976C98.0851 9.35694 98.6416 9.13989 99.2971 9.13989C99.9526 9.13989 100.513 9.36022 100.967 9.7976C101.421 10.235 101.649 10.7743 101.649 11.4057C101.649 12.0371 101.421 12.5698 100.967 13.0105ZM98.0475 12.6126C98.3821 12.9414 98.7986 13.1026 99.2971 13.1026C99.7956 13.1026 100.212 12.9381 100.547 12.6126C100.881 12.287 101.049 11.8825 101.049 11.4024C101.049 10.9223 100.881 10.5145 100.547 10.1856C100.212 9.86008 99.7956 9.69566 99.2971 9.69566C98.7986 9.69566 98.3821 9.86008 98.0475 10.1856C97.7129 10.5145 97.5456 10.919 97.5456 11.4024C97.5456 11.8858 97.7129 12.2837 98.0475 12.6126Z" fill="#0D6EFD"/>
<path d="M105.996 9.21558V13.5893H105.391V9.76476H103.302V13.5893H102.698V9.21558H105.992H105.996Z" fill="#0D6EFD"/>
<path d="M110.117 13.5893V10.3271L107.781 13.5893H107.297V9.21558H107.901V12.4844L110.236 9.21558H110.721V13.5893H110.117Z" fill="#0D6EFD"/>
</g>
<defs>
<clipPath id="clip0_80_32">
<rect width="170" height="30" fill="white"/>
</clipPath>
</defs>
</svg>
