<svg width="34" height="30" viewBox="0 0 34 30" fill="none" xmlns="http://www.w3.org/2000/svg">
<path d="M15.6613 0.00281791C15.6613 0.859005 15.6613 1.71519 15.6613 2.57138C15.6613 3.68339 15.6613 4.7954 15.6613 5.90593C14.602 5.90149 13.667 5.90593 12.8809 5.91776C12.0673 5.92811 11.3948 5.94437 10.5289 6.05676C9.95016 6.13217 9.55099 6.21646 9.15183 6.33772C8.65287 6.48855 8.29209 6.59649 7.91595 6.83753C7.14218 7.32995 6.35153 8.34436 6.5419 9.33955C6.58949 9.58502 6.68314 9.76099 6.77219 9.92808C7.17442 10.6852 7.81155 11.0889 8.08022 11.2161C9.34373 11.8149 10.7239 12.019 12.1072 12.0442C15.1562 12.0989 18.2083 12.0589 21.2573 12.09C23.4312 12.1122 25.5913 12.2926 27.627 13.1059C31.1458 14.5107 33.0465 17.0438 33.1278 20.7362C33.2077 24.3768 31.5496 27.0356 28.1168 28.6252C26.3912 29.4237 24.5366 29.755 22.6574 29.9073C21.1007 30.0344 19.5301 30.0123 17.9657 30.0758C17.5834 30.0921 17.4499 29.9989 17.456 29.6041C17.4806 27.9805 17.4806 26.3553 17.456 24.7317C17.4499 24.3265 17.565 24.2201 17.9872 24.2171C19.9523 24.2082 21.9328 24.2378 23.8304 23.6537C24.5197 23.4408 25.229 23.1258 25.7786 22.6836C27.0774 21.6337 26.864 19.8149 25.4209 18.9558C24.0852 18.1617 22.573 18.0301 21.0746 18.0035C17.9242 17.9473 14.7708 17.999 11.6205 17.9768C9.27772 17.9606 6.98405 17.6737 4.84084 16.6682C1.23301 14.9765 -0.363654 11.7425 0.0692863 8.14473C0.537538 4.25122 2.90796 1.82314 6.85049 0.786547C9.73062 0.0294352 12.6629 -0.0149269 15.6613 0.00281791Z" fill="#656C72"/>
<path d="M17.4836 5.86039V0.0341797H32.4262V12.3121C32.285 12.2766 32.1545 12.2574 32.0378 12.2101C30.1172 11.4367 28.2043 10.6485 26.276 9.89438C25.9275 9.75834 25.8523 9.57497 25.8584 9.24965C25.8769 8.32249 25.8369 7.39236 25.8769 6.4652C25.8968 5.992 25.7679 5.84265 25.2566 5.84708C22.8877 5.8737 20.5188 5.85891 18.1499 5.85891C17.9335 5.85891 17.7185 5.85891 17.4836 5.85891V5.86039Z" fill="#0D6EFD"/>
<path d="M15.7457 24.2289V30.0418H0.0355225C0.106144 29.8644 0.159878 29.7062 0.232034 29.5553C0.998124 27.9228 1.75654 26.2888 2.54412 24.6666C2.63317 24.4833 2.88648 24.2467 3.06457 24.2467C7.27576 24.223 11.487 24.2289 15.7473 24.2289H15.7457Z" fill="#0D6EFD"/>
<path d="M14.5144 2.66011C14.3532 2.66011 14.1736 2.65857 13.9771 2.66011" stroke="white" stroke-width="0.460575" stroke-miterlimit="10"/>
<path d="M12.8963 2.68823C12.491 2.70598 12.0457 2.73259 11.5698 2.77252C9.07195 2.98398 7.68562 3.11707 6.2517 3.98952C5.09566 4.6934 4.47388 5.5348 4.30193 5.77583C3.97185 6.24163 3.09676 7.51926 3.2119 9.24494C3.32398 10.9189 4.305 12.0457 4.57981 12.3518C6.34228 14.32 9.14565 14.5551 12.4188 14.7872C14.083 14.9041 13.9326 14.7577 17.2687 14.7665C21.6994 14.7769 23.9516 14.7991 25.7494 15.5606C26.8241 16.0161 29.2712 17.0541 29.9698 19.3861C30.4826 21.097 29.7917 22.6304 29.6812 22.8656C29.566 23.1125 29.0333 24.1964 27.4305 25.2611C24.8328 26.9853 21.6073 27.2101 19.699 27.1761" stroke="white" stroke-width="0.460575" stroke-miterlimit="10" stroke-dasharray="1.08 1.08"/>
<path d="M19.1586 27.1584C18.9544 27.1495 18.7748 27.1376 18.6228 27.1257" stroke="white" stroke-width="0.460575" stroke-miterlimit="10"/>
</svg>
